<?xml version="1.0" standalone="no"?>
<!DOCTYPE svg PUBLIC "-//W3C//DTD SVG 20010904//EN"
 "http://www.w3.org/TR/2001/REC-SVG-20010904/DTD/svg10.dtd">
<svg version="1.0" xmlns="http://www.w3.org/2000/svg"
 width="32" height="32" viewBox="0 0 2000.000000 2000.000000"
 preserveAspectRatio="xMidYMid meet">

<g transform="translate(0.000000,2000.000000) scale(0.100000,-0.100000)"
fill="#000000" stroke="none">
<path d="M9650 19579 c-2110 -99 -4117 -875 -5725 -2214 -335 -279 -803 -734
-1076 -1046 -930 -1066 -1596 -2276 -1983 -3604 -620 -2132 -467 -4433 429
-6456 399 -899 931 -1723 1603 -2484 167 -188 630 -647 827 -819 1074 -938
2321 -1622 3670 -2012 1762 -510 3646 -510 5410 0 1260 364 2460 1001 3470
1841 335 279 803 734 1076 1046 755 865 1332 1820 1738 2874 686 1786 806
3791 340 5660 -364 1457 -1067 2796 -2074 3950 -191 218 -661 689 -880 880
-1584 1383 -3522 2199 -5615 2365 -368 29 -843 36 -1210 19z m840 -719 c881
-41 1691 -193 2505 -470 1498 -511 2839 -1418 3871 -2620 1624 -1891 2361
-4353 2043 -6820 -192 -1487 -771 -2909 -1677 -4115 -911 -1212 -2121 -2175
-3507 -2790 -367 -163 -866 -341 -1247 -445 -2124 -578 -4371 -365 -6333 600
-2236 1101 -3916 3107 -4594 5485 -292 1025 -393 2114 -295 3190 146 1612 738
3144 1720 4450 499 663 1094 1257 1769 1765 1640 1232 3694 1865 5745 1770z"/>
<path d="M8375 15079 c-650 -22 -945 -57 -1290 -150 -486 -132 -876 -353
-1211 -687 -269 -268 -464 -574 -598 -938 -146 -395 -194 -701 -228 -1444 -18
-386 -18 -3173 0 -3570 33 -737 82 -1048 229 -1447 133 -361 324 -661 594
-932 337 -337 725 -557 1214 -690 520 -141 895 -161 3015 -161 2120 0 2495 20
3015 161 489 132 878 354 1214 690 215 217 346 399 476 664 127 257 198 467
255 755 91 458 105 819 105 2745 0 1926 -14 2287 -105 2745 -57 288 -128 498
-255 755 -131 267 -267 456 -479 667 -336 335 -725 556 -1211 687 -355 96
-628 127 -1335 151 -341 11 -3062 11 -3405 -1z m3595 -908 c118 -6 274 -16
345 -21 506 -41 886 -165 1181 -383 94 -70 279 -256 346 -347 217 -297 340
-687 377 -1205 29 -393 35 -771 35 -2140 0 -1369 -6 -1747 -35 -2140 -38 -523
-157 -904 -377 -1205 -67 -91 -252 -277 -346 -347 -293 -217 -676 -342 -1176
-382 -383 -31 -679 -36 -2220 -36 -1541 0 -1837 5 -2220 36 -500 40 -882 164
-1176 382 -89 66 -275 252 -341 341 -224 303 -345 688 -382 1216 -29 409 -35
769 -35 2135 0 1366 6 1726 35 2135 49 705 250 1164 658 1504 192 160 420 273
695 346 284 75 533 100 1180 120 382 11 3196 5 3456 -9z"/>
<path d="M12725 13350 c-254 -40 -449 -214 -510 -455 -49 -194 13 -415 159
-560 124 -123 261 -179 436 -179 90 0 117 5 190 30 153 54 270 153 342 290 48
92 68 173 68 279 0 48 -7 115 -16 149 -51 199 -229 379 -425 429 -73 19 -183
27 -244 17z"/>
<path d="M9830 12639 c-390 -43 -792 -180 -1114 -381 -325 -203 -645 -525
-842 -848 -175 -288 -297 -625 -351 -970 -25 -162 -25 -567 0 -730 43 -276
122 -525 243 -770 138 -277 297 -494 517 -706 408 -395 898 -632 1482 -716
141 -20 561 -17 710 6 558 85 1047 327 1449 716 404 392 665 900 753 1470 25
163 25 568 0 730 -54 345 -185 705 -357 980 -203 325 -515 638 -840 840 -108
68 -356 188 -484 235 -129 47 -370 108 -516 130 -135 20 -519 29 -650 14z
m577 -919 c566 -103 1050 -496 1262 -1025 326 -815 -31 -1733 -824 -2121 -470
-229 -1020 -229 -1490 0 -835 409 -1181 1404 -775 2231 253 516 756 867 1340
935 115 13 359 4 487 -20z"/>
</g>
</svg>
